<svg width="656.64" height="105.71" xmlns="http://www.w3.org/2000/svg"><g fill="#231f20"><path d="M656.64 44.73c-.47.05-.94.16-1.41.16h-11.92v1.43c0 9.2-.01 18.4.02 27.59 0 1.18.1 2.4.36 3.55.65 2.83 2.27 4.19 5.16 4.46 1.19.11 2.39.17 3.59.2 1.19.04 2.38.01 3.65.01v20.9c-2.3.22-4.55.5-6.8.62-6.51.32-13.04.65-19.46-.74-7.3-1.58-11.28-6.08-12.04-13.57-.39-3.85-.62-7.73-.66-11.6-.08-10.43-.03-20.87-.03-31.3V44.9c-2.78 0-5.45-.05-8.11.02-1.06.03-1.34-.3-1.33-1.35.05-5.15.02-10.31.02-15.6h9.81V4.95h26.13v22.98h13.02v16.8zM98.33.14h36.42v103.09h-27.22V44.71s-5.54 21.4-7.91 30.63c-2.31 9-7.13 28-7.13 28l-21-.03-15.03-58.6v58.5H29.35V.15h36.4l16.13 64.03h.42C82.72 62.6 98.33.15 98.33.15zM337.36 103.24h-26.33c0-.52.03-28.4-.03-41.89 0-1.81-.27-3.67-.7-5.43-1.85-7.5-10.08-7.88-14.29-4.3-2.28 1.95-3.34 4.44-3.66 7.29a59.6 59.6 0 00-.34 6.45c-.03 12.12 0 37.3 0 37.85h-26.1c0-.48.06-27.57 0-40.65 0-2.14-.32-4.3-.66-6.42-.6-3.8-3.83-6.3-6.54-6.6-4.95-.55-8.18 1.59-9.98 5.2-1.47 2.93-1.71 6.14-1.72 9.34-.06 12.56 0 38.61 0 39.15h-25.92V28.64h24.12v10.23l.28.15c.27-.26.59-.5.8-.8 2.4-3.29 5.16-6.2 8.62-8.39 4.7-2.96 9.88-3.91 15.36-3.48 4.16.33 8 1.52 11.22 4.26a28 28 0 016.53 8.48c.1.2.23.4.42.7 1.1-1.32 2.14-2.55 3.16-3.8 3.79-4.6 8.35-8.04 14.33-9.12 7.49-1.35 14.74-.85 21.25 3.6 4.16 2.83 6.7 6.83 8.12 11.63a54.94 54.94 0 012.05 15.48c.03 14.71.01 45.1.01 45.66zM538.62 103.29h-1.4c-9.55 0-19.1-.03-28.67.03-1.25.01-1.88-.39-2.46-1.48-4.04-7.7-8.16-15.35-12.26-23.02-.39-.73-.8-1.44-1.3-2.32-1.7 1.93-3.32 3.72-4.88 5.56-.23.28-.2.83-.2 1.26v19.88H461.1V0h26.32v50.88l.36.18c.86-1.1 1.74-2.18 2.57-3.3 4.56-6.14 9.1-12.3 13.7-18.42.28-.38.88-.74 1.33-.74 9.68-.04 19.36-.03 29.03-.03.24 0 .47.03.95.07l-2.29 2.72c-4.64 5.42-9.27 10.84-13.93 16.25-2.6 3.02-5.2 6.04-7.85 9-.48.55-.45.89-.11 1.45 5.88 9.63 11.74 19.27 17.6 28.92 3.2 5.25 6.4 10.5 9.58 15.75.08.12.13.27.26.56zM216.36 72.59H165.5c-.24 6.56 3.25 13.04 10.15 14.08 1.9.29 3.9.26 5.82.04 3.04-.37 5.28-2.08 6.73-4.8.3-.55.55-1.04 1.39-1.03 7.87.04 15.75.02 23.63.03.24 0 .47.05.77.09a24.3 24.3 0 01-4.87 10.7c-6.37 7.93-14.71 12.28-24.74 13.54-8.64 1.07-17.06.36-25.06-3.3-6.33-2.89-11.17-7.5-14.74-13.41-4.4-7.29-5.78-15.28-5.46-23.68.27-6.97 1.7-13.63 5.11-19.74 5.77-10.32 14.45-16.64 26.22-18.33 8.4-1.2 16.57-.23 24.3 3.45 6.3 2.99 11.02 7.68 14.56 13.6a46.9 46.9 0 016.47 20.34c.24 2.74.38 5.48.58 8.42zm-50.6-15.22h23.99c.16-8.04-5.04-13.3-12.91-13.12-6.72.15-10.91 5.65-11.08 13.12z"/><path d="M608.86 72.56h-50.82c-.08 2.68.41 5.15 1.52 7.47 2.25 4.71 6.17 6.77 11.26 6.94 2.88.1 5.6-.34 7.8-2.37.9-.85 1.55-1.98 2.36-2.95.25-.3.62-.71.94-.71 8.15-.04 16.3-.03 24.64-.03-.09.48-.13.89-.23 1.28-2.08 8.18-7.38 13.8-14.4 18.02-7.94 4.77-16.62 5.96-25.7 5.29-5.06-.38-9.96-1.41-14.54-3.64-8.6-4.2-14.56-10.9-17.57-19.92-4.16-12.47-3.55-24.85 2.62-36.55 5.74-10.89 14.91-17.2 27.24-18.7 7.77-.95 15.3-.04 22.48 3.13 8.08 3.57 13.56 9.77 17.35 17.56a46.5 46.5 0 014.6 17.23c.19 2.58.3 5.17.45 7.95zm-26.41-15.1c-.17-4.99-1.56-9.32-6.06-11.74-4.23-2.27-8.74-2.39-12.85.36-3.97 2.65-5 6.85-5.33 11.37h24.24zM455.47 72.56h-50.79a14.9 14.9 0 001.83 8.21c2.3 4.25 6.07 6.06 10.73 6.17 1.5.03 3.04-.14 4.5-.47a8.35 8.35 0 005.52-4.41c.44-.81.95-1.19 1.95-1.18 7.52.05 15.04.03 22.55.03h1.41a24.09 24.09 0 01-4.54 10.32c-6.37 8.21-14.83 12.72-25.08 14.01-8.05 1.01-15.94.46-23.52-2.62-8.68-3.52-14.69-9.83-18.45-18.32-3.09-6.95-3.75-14.27-3.16-21.79.47-5.96 1.84-11.68 4.72-16.94 5.93-10.81 14.9-17.33 27.29-18.87 7.34-.9 14.46-.14 21.37 2.6 7.35 2.92 12.79 8.01 16.78 14.72a45.73 45.73 0 016.23 18.94c.32 3.13.44 6.28.66 9.6zm-26.46-15.08c-.06-7.57-4.27-13.21-12.15-13.33-7.09-.11-11.77 4.94-12.1 13.33h24.25zM371.47 103.24H345.2V0h26.28v103.24z"/></g><path d="M21.85 21.61H0V.14h21.85z" fill="#ed1c24"/></svg>